<svg xmlns="http://www.w3.org/2000/svg" xmlns:xlink="http://www.w3.org/1999/xlink" width="500" height="500" viewBox="0 0 500 500">
  <style>
    #パス_408,
    #パス_409,
    #パス_410,
    #パス_411 {
      fill: #00c652;
    }
  </style>
<defs>
    <clipPath id="clip-Custom_Size_1">
      <rect width="500" height="500"/>
    </clipPath>
  </defs>
  <g id="Custom_Size_1" data-name="Custom Size – 1" clip-path="url(#clip-Custom_Size_1)">
    <g id="グループ_81" data-name="グループ 81" transform="translate(-561.613 -318.25)">
      <path id="パス_408" data-name="パス 408" d="M812.021,747.69c-117.315.354-213.054-95.006-213.408-212.575s94.8-213.509,212.126-213.864,213.054,95,213.408,212.573S929.345,747.329,812.021,747.69ZM810.8,341.362c-106.255.32-192.438,87.21-192.118,193.7S705.708,727.9,811.963,727.578s192.438-87.213,192.112-193.693S917.052,341.039,810.8,341.362Z" transform="translate(0 0)"/>
      <path id="パス_409" data-name="パス 409" d="M878.392,547.716H626.717l52.32-97.659,14.771,7.916-39.1,72.983H878.392Z" transform="translate(59.989 268.533)"/>
      <g id="グループ_80" data-name="グループ 80" transform="translate(710.199 491.823)">
        <path id="パス_410" data-name="パス 410" d="M695.976,398.891a22.486,22.486,0,1,1-22.257-22.706A22.484,22.484,0,0,1,695.976,398.891Z" transform="translate(-599.646 -376.184)"/>
        <path id="パス_411" data-name="パス 411" d="M783.734,546.445l58.754-8.315a10.266,10.266,0,0,0-1.815-20.452l-51.537-1.611-31.717-82.6,21.332-5.714,28.527,21.335a8.752,8.752,0,0,0,11-13.62l-28.135-26.117c-2.993-2.938-5.9-5.12-11-5.314-57.922,7.724-105.663,13.432-105.663,13.432L649.96,387.354a8.751,8.751,0,0,0-14.255,10.154L660.257,435.4c2.719,3.812,8.54,4.543,12.855,4.288l29.058-1.517c5.475,10.5,14.983,35.7,15.6,37.037.546,1.174.255,1.948-.6,2.315-.944.382-34.918,14.855-34.918,14.855-4.825,1.906-9.016,5.174-10.534,8.843l-19.068,56.117a10.266,10.266,0,0,0,18.974,7.848l22.834-46.56,48.454-13.9a3.357,3.357,0,0,1,3.432.856c.373.51,18.288,31.623,18.288,31.623C767.495,541.261,773.6,547.625,783.734,546.445Z" transform="translate(-634.082 -360.926)"/>
      </g>
    </g>
  </g>
</svg>
